<?xml version="1.0" encoding="UTF-8" standalone="no"?>
<svg
   xmlns:dc="http://purl.org/dc/elements/1.1/"
   xmlns:cc="http://creativecommons.org/ns#"
   xmlns:rdf="http://www.w3.org/1999/02/22-rdf-syntax-ns#"
   xmlns:svg="http://www.w3.org/2000/svg"
   xmlns="http://www.w3.org/2000/svg"
   xmlns:sodipodi="http://sodipodi.sourceforge.net/DTD/sodipodi-0.dtd"
   xmlns:inkscape="http://www.inkscape.org/namespaces/inkscape"
   width="276.51599"
   height="72.288239"
   id="svg3422"
   version="1.1"
   inkscape:version="0.91 r13725"
   sodipodi:docname="Heroku_logo.svg">
  <metadata
     id="metadata3452">
    <rdf:RDF>
      <cc:Work
         rdf:about="">
        <dc:format>image/svg+xml</dc:format>
        <dc:type
           rdf:resource="http://purl.org/dc/dcmitype/StillImage" />
        <dc:title></dc:title>
      </cc:Work>
    </rdf:RDF>
  </metadata>
  <defs
     id="defs3450" />
  <sodipodi:namedview
     pagecolor="#ffffff"
     bordercolor="#666666"
     borderopacity="1"
     objecttolerance="10"
     gridtolerance="10"
     guidetolerance="10"
     inkscape:pageopacity="0"
     inkscape:pageshadow="2"
     inkscape:window-width="1366"
     inkscape:window-height="718"
     id="namedview3448"
     showgrid="false"
     fit-margin-top="0"
     fit-margin-left="0"
     fit-margin-right="0"
     fit-margin-bottom="0"
     inkscape:zoom="3.9533333"
     inkscape:cx="137.99999"
     inkscape:cy="36.28824"
     inkscape:window-x="0"
     inkscape:window-y="21"
     inkscape:window-maximized="1"
     inkscape:current-layer="svg3422" />
  <desc
     id="desc3424">Logo of Heroku</desc>
  <g
     id="g3426"
     style="fill:#430098"
     transform="translate(-12.00001,-14)">
    <path
       d="m 73.44888,79.78346 c 0,1.59546 -1.29227,2.88772 -2.88773,2.88772 l -52.05038,0 c -1.59354,0 -2.89565,-1.29226 -2.89565,-2.88772 l 0,-59.2727 c 0,-1.60145 1.30211,-2.89565 2.89565,-2.89565 l 52.05038,0 c 1.59547,0 2.88773,1.29419 2.88773,2.89565 l 0,59.2727 z M 70.56115,14 18.51077,14 c -3.59134,0 -6.51076,2.91149 -6.51076,6.51076 l 0,59.2727 c 0,3.59328 2.91942,6.50478 6.51076,6.50478 l 52.05038,0 c 3.59328,0 6.50285,-2.91148 6.50285,-6.50478 l 0,-59.2727 C 77.064,16.91149 74.15444,14 70.56115,14"
       id="path3428"
       inkscape:connector-curvature="0" />
    <path
       d="m 28.266,75.4489 8.1379,-7.23219 -8.1379,-7.23021 0,14.4624 0,0 z"
       id="path3430"
       inkscape:connector-curvature="0" />
    <path
       d="m 57.65525,46.14495 c -1.46324,-1.471 -4.13426,-3.22844 -8.60141,-3.22844 -4.90073,0 -9.94854,1.27744 -13.55634,2.4465 l 0,-20.51644 -7.23108,0 0,31.34759 5.10976,-2.31487 c 0.08517,-0.03871 8.32272,-3.73167 15.67768,-3.73167 3.66973,0 4.48265,2.02068 4.52136,3.70844 l 0,21.59259 7.22333,0 0,-21.6855 c 0.0078,-0.46453 -0.0387,-4.4749 -3.14328,-7.61818"
       id="path3432"
       inkscape:connector-curvature="0" />
    <path
       d="m 48.148,36.59126 7.23109,0 c 3.26715,-3.70071 4.93168,-7.64141 5.41945,-11.7447 l -7.22334,0 c -0.80517,4.09555 -2.58585,8.01303 -5.42717,11.7447"
       id="path3434"
       inkscape:connector-curvature="0" />
    <path
       d="m 113.21224,39.34743 c -4.09555,0 -9.22078,1.1226 -12.65826,2.42327 l 0,-16.92413 -7.22334,0 0,50.60208 7.22334,0 0,-27.45332 c 3.5536,-1.6181 8.50077,-2.42327 11.63631,-2.42327 1.56388,0 2.88779,0.80518 2.88779,2.67875 l 0,27.19785 7.16914,0 0,-26.20687 c 0,-5.72138 -2.4697,-9.89435 -9.03497,-9.89435"
       id="path3436"
       inkscape:connector-curvature="0" />
    <path
       d="m 134.89799,53.7622 c 0.11699,-3.7994 0.62001,-7.47 0.62001,-7.47 0,0 3.64499,-0.767 8.46899,-0.767 4.82401,0 6.271,3.0661 6.271,8.237 l -15.36,0 0,0 0,0 z m 9.08899,-14.4604 c -6.077,0 -10.901,0.7512 -14.50801,2.1742 -1.38698,4.9866 -1.811,10.0188 -1.811,15.9965 0,10.8928 1.865,17.9764 13.91102,17.9764 5.60501,0 10.29602,-1.7422 14.15298,-3.5537 L 154.531,66.29809 c -3.61504,1.431 -8.31401,2.86401 -12.47202,2.86401 -5.29602,0 -6.98299,-1.0841 -7.22302,-9.9792 l 21.74602,0 0,-3.8014 c 0,-9.894 -3.26602,-16.0797 -12.59503,-16.0797"
       id="path3438"
       inkscape:connector-curvature="0" />
    <path
       d="m 281.284,39.3018 0,27.1113 c 0,0 -5.086,2.7094 -11.74301,2.7094 -1.57199,0 -2.71799,-0.6719 -2.71799,-2.5469 l 0,-27.2738 -7.224,0 0,26.3463 c 0,5.71989 2.98901,9.8008 9.02802,9.8008 10.51199,0 19.88898,-5.4267 19.88898,-5.4267 l 0,-30.7204 -7.23199,0 0,0 0,0 z"
       id="path3440"
       inkscape:connector-curvature="0" />
    <path
       d="m 201.76587,70.02145 c -6.0775,0 -8.98851,-3.97166 -8.98851,-12.69697 0,-9.24401 3.79359,-12.60408 8.98851,-12.60408 6.07755,0 8.98856,3.97941 8.98856,12.70472 0,9.24401 -3.79361,12.59632 -8.98856,12.59632 m 0,-30.72048 c -9.57687,0 -16.26602,5.0246 -16.26602,18.2248 0,12.46471 5.06331,17.92286 16.26602,17.92286 9.56921,0 16.26607,-5.0246 16.26607,-18.23256 0,-12.45697 -5.07103,-17.9151 -16.26607,-17.9151"
       id="path3442"
       inkscape:connector-curvature="0" />
    <path
       d="m 162.00313,75.44888 7.23021,0 0,-27.1133 c 2.62413,-1.4389 6.9686,-2.63998 12.65088,-2.70934 l 0,-6.26301 c -11.47357,0 -19.88109,5.35725 -19.88109,5.35725 l 0,30.7284 0,0 z"
       id="path3444"
       inkscape:connector-curvature="0" />
    <path
       d="m 241.9549,56.23285 c 4.73039,-6.13171 8.57823,-11.88405 10.78467,-16.93187 l -7.50975,0 c -2.56261,5.37299 -5.56651,10.24274 -9.12788,14.46217 l -5.41942,0 0,-28.91657 -7.23106,0 0,50.60208 7.23106,0 0,-16.26606 5.41942,0 c 3.49168,4.32007 6.97562,9.61563 10.45953,16.25832 l 7.61041,0 C 250.7499,68.61243 246.82471,62.11684 241.95493,56.23288"
       id="path3446"
       inkscape:connector-curvature="0" />
  </g>
</svg>
